<svg width="71" height="36" viewBox="0 0 71 36" fill="none" xmlns="http://www.w3.org/2000/svg">
<path d="M16.3877 19.3592C16.3877 21.5633 15.9633 23.4092 15.1144 24.8969C14.2655 26.3847 13.029 27.5051 11.405 28.2582C9.79943 29.0112 7.86169 29.3878 5.59176 29.3878H0V9.71633H6.20077C8.26769 9.71633 10.0578 10.0837 11.5711 10.8184C13.1028 11.5531 14.2839 12.6367 15.1144 14.0694C15.9633 15.4837 16.3877 17.2469 16.3877 19.3592ZM12.0417 19.4694C12.0417 18.0184 11.8294 16.8245 11.405 15.8878C10.9805 14.951 10.3438 14.2622 9.49493 13.8214C8.66447 13.3622 7.64023 13.1327 6.42222 13.1327H4.17998V25.9439H5.97931C8.02778 25.9439 9.55029 25.402 10.5468 24.3184C11.5434 23.2347 12.0417 21.6184 12.0417 19.4694Z" fill="#F6F6F6"/>
<path d="M26.3598 14.0418C28.3898 14.0418 29.94 14.4827 31.0103 15.3643C32.0992 16.2276 32.6436 17.5592 32.6436 19.3592V29.3878H29.7646L28.9619 27.349H28.8511C28.4267 27.8816 27.9838 28.3224 27.5224 28.6714C27.0795 29.0204 26.5628 29.2684 25.9722 29.4153C25.4001 29.5806 24.6896 29.6633 23.8407 29.6633C22.9549 29.6633 22.1521 29.498 21.4324 29.1673C20.7311 28.8184 20.1774 28.2949 19.7714 27.5969C19.3654 26.8806 19.1624 25.9806 19.1624 24.8969C19.1624 23.299 19.7253 22.1235 20.851 21.3704C21.9768 20.599 23.6654 20.1765 25.9168 20.1031L28.5466 20.0204V19.3592C28.5466 18.5694 28.3344 17.9908 27.9099 17.6235C27.5039 17.2561 26.9318 17.0724 26.1937 17.0724C25.4555 17.0724 24.7357 17.1827 24.0345 17.4031C23.3332 17.6051 22.6319 17.8622 21.9306 18.1745L20.5742 15.3918C21.3862 14.9694 22.2813 14.6388 23.2594 14.4C24.2559 14.1612 25.2894 14.0418 26.3598 14.0418ZM26.9411 22.4724C25.6123 22.5092 24.6896 22.748 24.1729 23.1888C23.6561 23.6296 23.3978 24.2082 23.3978 24.9245C23.3978 25.549 23.5823 25.999 23.9514 26.2745C24.3205 26.5316 24.8003 26.6602 25.3909 26.6602C26.2767 26.6602 27.0241 26.4031 27.6331 25.8888C28.2421 25.3561 28.5466 24.6122 28.5466 23.6571V22.4173L26.9411 22.4724Z" fill="#F6F6F6"/>
<path d="M40.9901 14.3449V29.3878H36.8655V14.3449H40.9901ZM38.9417 8.44898C39.5507 8.44898 40.0766 8.59592 40.5195 8.8898C40.9624 9.16531 41.1839 9.68877 41.1839 10.4602C41.1839 11.2133 40.9624 11.7367 40.5195 12.0306C40.0766 12.3245 39.5507 12.4714 38.9417 12.4714C38.3142 12.4714 37.779 12.3245 37.3361 12.0306C36.9116 11.7367 36.6994 11.2133 36.6994 10.4602C36.6994 9.68877 36.9116 9.16531 37.3361 8.8898C37.779 8.59592 38.3142 8.44898 38.9417 8.44898Z" fill="#F6F6F6"/>
<path d="M49.4245 29.3878H45.2999V8.44898H49.4245V29.3878Z" fill="#F6F6F6"/>
<path d="M51.575 14.3449H56.0872L58.9384 22.8031C59.0307 23.0786 59.1045 23.3541 59.1599 23.6296C59.2337 23.9051 59.2891 24.1898 59.326 24.4837C59.3813 24.7776 59.4183 25.0898 59.4367 25.4204H59.5198C59.5751 24.9429 59.6489 24.4929 59.7412 24.0704C59.8519 23.6296 59.9719 23.2071 60.1011 22.8031L62.897 14.3449H67.3261L60.9315 31.3163C60.544 32.3449 60.0365 33.2082 59.409 33.9061C58.8 34.6041 58.0895 35.1276 57.2775 35.4765C56.4655 35.8255 55.5797 36 54.62 36C54.1587 36 53.7527 35.9725 53.402 35.9174C53.0699 35.8806 52.7746 35.8347 52.5162 35.7796V32.5286C52.7192 32.5653 52.9591 32.602 53.2359 32.6388C53.5312 32.6755 53.8357 32.6939 54.1494 32.6939C54.7215 32.6939 55.2106 32.5745 55.6166 32.3357C56.041 32.0969 56.3917 31.7663 56.6685 31.3439C56.9453 30.9398 57.1668 30.499 57.3329 30.0214L57.582 29.2776L51.575 14.3449Z" fill="#F6F6F6"/>
<path d="M60.5128 13.3163H51.304V11.3878L54.6074 8.06327C55.2717 7.37755 55.8069 6.80816 56.2129 6.3551C56.6189 5.8898 56.9142 5.47347 57.0987 5.10612C57.2833 4.72653 57.3756 4.32245 57.3756 3.89388C57.3756 3.36735 57.2279 2.97551 56.9326 2.71837C56.6497 2.46122 56.2621 2.33265 55.77 2.33265C55.2656 2.33265 54.7734 2.44898 54.2936 2.68163C53.8138 2.91429 53.3094 3.2449 52.7803 3.67347L51.2671 1.89184C51.6485 1.56122 52.0483 1.2551 52.4666 0.973469C52.8972 0.691836 53.3893 0.465306 53.943 0.293877C54.5089 0.110204 55.1856 0.0183671 55.973 0.0183671C56.8342 0.0183671 57.5724 0.177551 58.1876 0.495919C58.815 0.802041 59.2948 1.22449 59.627 1.76327C59.9715 2.2898 60.1438 2.8898 60.1438 3.56327C60.1438 4.28571 59.9961 4.94694 59.7008 5.54694C59.4179 6.14694 58.9996 6.74082 58.4459 7.32857C57.9046 7.91633 57.2464 8.56531 56.4713 9.27551L54.7734 10.8551V10.9837H60.5128V13.3163Z" fill="#568769"/>
<path d="M71 6.75918C71 7.81224 70.9139 8.7551 70.7416 9.58776C70.5817 10.4204 70.3172 11.1306 69.9481 11.7184C69.5913 12.2939 69.1176 12.7347 68.5271 13.0408C67.9488 13.3469 67.2352 13.5 66.3863 13.5C65.3283 13.5 64.4609 13.2306 63.7842 12.6918C63.1076 12.1531 62.6031 11.3816 62.2709 10.3776C61.9511 9.37347 61.7911 8.16735 61.7911 6.75918C61.7911 5.33878 61.9388 4.12653 62.234 3.12245C62.5293 2.11837 63.0153 1.34694 63.692 0.808163C64.3686 0.269388 65.2667 0 66.3863 0C67.4444 0 68.3118 0.269388 68.9884 0.808163C69.6651 1.33469 70.1695 2.10612 70.5017 3.12245C70.8339 4.12653 71 5.33878 71 6.75918ZM64.5593 6.75918C64.5593 7.75102 64.6147 8.58367 64.7254 9.25714C64.8361 9.91837 65.0207 10.4204 65.2791 10.7633C65.5497 11.0939 65.9188 11.2592 66.3863 11.2592C66.8538 11.2592 67.2168 11.0939 67.4752 10.7633C67.7458 10.4327 67.9365 9.93673 68.0473 9.27551C68.1703 8.60204 68.2318 7.76327 68.2318 6.75918C68.2318 5.7551 68.1703 4.92245 68.0473 4.26122C67.9365 3.58775 67.7458 3.08571 67.4752 2.7551C67.2168 2.41224 66.8538 2.24082 66.3863 2.24082C65.9188 2.24082 65.5497 2.41224 65.2791 2.7551C65.0207 3.08571 64.8361 3.58775 64.7254 4.26122C64.6147 4.92245 64.5593 5.7551 64.5593 6.75918Z" fill="#568769"/>
</svg>
