<svg width="28" height="33" viewBox="0 0 28 33" fill="none" xmlns="http://www.w3.org/2000/svg">
<path d="M22.0377 12.6292L23.7879 13.3817C24.7077 13.7772 25.8148 13.4146 26.2444 12.4154L27.3172 9.92013C27.7192 8.9853 27.2611 7.87351 26.3286 7.47256L12.0124 1.31725C11.0147 0.888285 9.95253 1.36133 9.55599 2.2836L8.48315 4.77884C8.05886 5.76566 8.48661 6.80283 9.47177 7.22641L11.1694 7.95631L8.23953 13.1186C5.21232 13.2527 2.2644 14.6011 1.07709 17.3626C0.652798 18.3494 1.08054 19.3866 2.0657 19.8102L8.76444 22.6903L6.6151 27.6893L6.58157 27.7673L6.54805 27.8453L6.50091 27.9549L6.50837 28.074L6.69872 31.1124C6.74813 31.9011 7.70145 32.311 8.30785 31.8042L10.6439 29.8521L10.7355 29.7756L10.7477 29.7471C10.7571 29.7384 10.7673 29.7286 10.7773 29.7183C10.8111 29.6834 10.8639 29.6218 10.9023 29.5326L13.0516 24.5336L19.7504 27.4138C20.6702 27.8093 21.7772 27.4466 22.2068 26.4474C23.4185 23.6293 22.2904 20.5875 20.3069 18.3068L22.0377 12.6292Z" fill="#F4CE7C" stroke="black"/>
</svg>
